# xmcd
# 
# Track frame offsets:
#     150
#     24495
#     36965
#     59900
#     79080
#     98325
#     115255
#     139785
# 
# Disc length: 2036
# 
# Revision: 1
# Processed by: cddbd v1.5.2PL0 Copyright (c) Steve Scherf et al.
# Submitted via: BonkEnc v1.0.5
# 
DISCID=6507f208
DTITLE=Stan Getz and Joao Gilberto - Getz/Gilberto
DYEAR=1963
DGENRE=Jazz
TTITLE0=The Girl From Ipanema
TTITLE1=Doralice
TTITLE2=P'ra Machucar meu Coracao
TTITLE3=Desafinado
TTITLE4=Corcovado (Quiet Nights of Quiet Stars)
TTITLE5=So Danco Samba (I Only Dance Samba)
TTITLE6=O Grande Amor
TTITLE7=Vivo Sonhando (Dreamer)
EXTD=YEAR: 1963
EXTT0=
EXTT1=
EXTT2=
EXTT3=
EXTT4=
EXTT5=
EXTT6=
EXTT7=
PLAYORDER=
